<mxfile host="Electron" agent="Mozilla/5.0 (Macintosh; Intel Mac OS X 10_15_7) AppleWebKit/537.36 (KHTML, like Gecko) draw.io/28.0.6 Chrome/138.0.7204.100 Electron/37.2.3 Safari/537.36" version="28.0.6">
  <diagram name="Pagina-1" id="R0M_dBbvIoJZvRLZaT4a">
    <mxGraphModel dx="976" dy="663" grid="1" gridSize="10" guides="1" tooltips="1" connect="1" arrows="1" fold="1" page="1" pageScale="1" pageWidth="1200" pageHeight="1600" math="0" shadow="0">
      <root>
        <mxCell id="0" />
        <mxCell id="1" parent="0" />
        <mxCell id="m238I9pT3_WixQOoejfo-10" style="edgeStyle=orthogonalEdgeStyle;rounded=0;orthogonalLoop=1;jettySize=auto;html=1;exitX=0.465;exitY=1;exitDx=0;exitDy=0;exitPerimeter=0;entryX=1;entryY=0.5;entryDx=0;entryDy=0;" edge="1" parent="1" source="kvHNdkRFSWuiWHo-aNbD-1" target="kvHNdkRFSWuiWHo-aNbD-19">
          <mxGeometry relative="1" as="geometry" />
        </mxCell>
        <mxCell id="kvHNdkRFSWuiWHo-aNbD-1" value="" style="shape=or;whiteSpace=wrap;html=1;rotation=90;" parent="1" vertex="1">
          <mxGeometry x="555" y="261" width="40" height="60" as="geometry" />
        </mxCell>
        <mxCell id="kvHNdkRFSWuiWHo-aNbD-2" value="ksig" style="text;html=1;align=center;verticalAlign=middle;whiteSpace=wrap;rounded=0;" parent="1" vertex="1">
          <mxGeometry x="555" y="274" width="40" height="30" as="geometry" />
        </mxCell>
        <mxCell id="kvHNdkRFSWuiWHo-aNbD-28" style="edgeStyle=orthogonalEdgeStyle;rounded=0;orthogonalLoop=1;jettySize=auto;html=1;exitX=0.5;exitY=1;exitDx=0;exitDy=0;entryX=0.5;entryY=0;entryDx=0;entryDy=0;" parent="1" target="kvHNdkRFSWuiWHo-aNbD-17" edge="1">
          <mxGeometry relative="1" as="geometry">
            <Array as="points">
              <mxPoint x="411" y="340" />
              <mxPoint x="361" y="340" />
            </Array>
            <mxPoint x="410.25" y="310" as="sourcePoint" />
          </mxGeometry>
        </mxCell>
        <mxCell id="DCXnxCrjE1ychxpzeTqp-1" style="edgeStyle=orthogonalEdgeStyle;rounded=0;orthogonalLoop=1;jettySize=auto;html=1;exitX=0.5;exitY=1;exitDx=0;exitDy=0;entryX=0.5;entryY=0;entryDx=0;entryDy=0;" parent="1" target="kvHNdkRFSWuiWHo-aNbD-18" edge="1">
          <mxGeometry relative="1" as="geometry">
            <Array as="points">
              <mxPoint x="411" y="340" />
              <mxPoint x="451" y="340" />
            </Array>
            <mxPoint x="410.25" y="310" as="sourcePoint" />
          </mxGeometry>
        </mxCell>
        <mxCell id="kvHNdkRFSWuiWHo-aNbD-12" value="" style="rounded=0;whiteSpace=wrap;html=1;" parent="1" vertex="1">
          <mxGeometry x="341" y="400" width="40" height="10" as="geometry" />
        </mxCell>
        <mxCell id="kvHNdkRFSWuiWHo-aNbD-13" value="L" style="shape=trapezoid;perimeter=trapezoidPerimeter;whiteSpace=wrap;html=1;fixedSize=1;" parent="1" vertex="1">
          <mxGeometry x="326" y="410" width="70" height="20" as="geometry" />
        </mxCell>
        <mxCell id="kvHNdkRFSWuiWHo-aNbD-29" style="edgeStyle=orthogonalEdgeStyle;rounded=0;orthogonalLoop=1;jettySize=auto;html=1;exitX=0.5;exitY=1;exitDx=0;exitDy=0;entryX=0.5;entryY=0;entryDx=0;entryDy=0;" parent="1" source="kvHNdkRFSWuiWHo-aNbD-17" target="kvHNdkRFSWuiWHo-aNbD-12" edge="1">
          <mxGeometry relative="1" as="geometry" />
        </mxCell>
        <mxCell id="kvHNdkRFSWuiWHo-aNbD-17" value="0" style="ellipse;whiteSpace=wrap;html=1;aspect=fixed;" parent="1" vertex="1">
          <mxGeometry x="350" y="360" width="22.5" height="22.5" as="geometry" />
        </mxCell>
        <mxCell id="kvHNdkRFSWuiWHo-aNbD-30" style="edgeStyle=orthogonalEdgeStyle;rounded=0;orthogonalLoop=1;jettySize=auto;html=1;exitX=0.5;exitY=1;exitDx=0;exitDy=0;entryX=0.5;entryY=0;entryDx=0;entryDy=0;" parent="1" source="kvHNdkRFSWuiWHo-aNbD-18" target="kvHNdkRFSWuiWHo-aNbD-21" edge="1">
          <mxGeometry relative="1" as="geometry" />
        </mxCell>
        <mxCell id="kvHNdkRFSWuiWHo-aNbD-18" value="1" style="ellipse;whiteSpace=wrap;html=1;aspect=fixed;" parent="1" vertex="1">
          <mxGeometry x="440" y="360" width="22.5" height="22.5" as="geometry" />
        </mxCell>
        <mxCell id="kvHNdkRFSWuiWHo-aNbD-19" value="~ksig" style="ellipse;whiteSpace=wrap;html=1;aspect=fixed;" parent="1" vertex="1">
          <mxGeometry x="474" y="270" width="38.75" height="38.75" as="geometry" />
        </mxCell>
        <mxCell id="kvHNdkRFSWuiWHo-aNbD-21" value="" style="rounded=0;whiteSpace=wrap;html=1;" parent="1" vertex="1">
          <mxGeometry x="431" y="400" width="40" height="10" as="geometry" />
        </mxCell>
        <mxCell id="kvHNdkRFSWuiWHo-aNbD-22" value="R" style="shape=trapezoid;perimeter=trapezoidPerimeter;whiteSpace=wrap;html=1;fixedSize=1;" parent="1" vertex="1">
          <mxGeometry x="416" y="410" width="70" height="20" as="geometry" />
        </mxCell>
        <mxCell id="m238I9pT3_WixQOoejfo-4" value="" style="shape=or;whiteSpace=wrap;html=1;rotation=90;" vertex="1" parent="1">
          <mxGeometry x="390" y="262" width="40" height="60" as="geometry" />
        </mxCell>
        <mxCell id="m238I9pT3_WixQOoejfo-12" style="edgeStyle=orthogonalEdgeStyle;rounded=0;orthogonalLoop=1;jettySize=auto;html=1;exitX=0;exitY=0.5;exitDx=0;exitDy=0;entryX=0.425;entryY=-0.017;entryDx=0;entryDy=0;entryPerimeter=0;" edge="1" parent="1" source="kvHNdkRFSWuiWHo-aNbD-19" target="m238I9pT3_WixQOoejfo-4">
          <mxGeometry relative="1" as="geometry" />
        </mxCell>
        <mxCell id="m238I9pT3_WixQOoejfo-13" value="sch" style="text;html=1;align=center;verticalAlign=middle;whiteSpace=wrap;rounded=0;" vertex="1" parent="1">
          <mxGeometry x="391" y="274.38" width="40" height="30" as="geometry" />
        </mxCell>
        <mxCell id="m238I9pT3_WixQOoejfo-14" value="control Bus" style="text;html=1;align=center;verticalAlign=middle;whiteSpace=wrap;rounded=0;" vertex="1" parent="1">
          <mxGeometry x="455.5" y="244" width="89" height="30" as="geometry" />
        </mxCell>
        <mxCell id="m238I9pT3_WixQOoejfo-15" value="audio Bus" style="text;html=1;align=center;verticalAlign=middle;whiteSpace=wrap;rounded=0;" vertex="1" parent="1">
          <mxGeometry x="470" y="352.5" width="60" height="30" as="geometry" />
        </mxCell>
        <mxCell id="m238I9pT3_WixQOoejfo-16" value="control Synth" style="text;html=1;align=center;verticalAlign=middle;whiteSpace=wrap;rounded=0;" vertex="1" parent="1">
          <mxGeometry x="530" y="244.38" width="89" height="30" as="geometry" />
        </mxCell>
        <mxCell id="m238I9pT3_WixQOoejfo-17" value="oscillator Synth" style="text;html=1;align=center;verticalAlign=middle;whiteSpace=wrap;rounded=0;" vertex="1" parent="1">
          <mxGeometry x="365.5" y="244.38" width="89" height="30" as="geometry" />
        </mxCell>
      </root>
    </mxGraphModel>
  </diagram>
</mxfile>
